<?xml version="1.0" standalone="no"?>
<!DOCTYPE svg PUBLIC "-//W3C//DTD SVG 20010904//EN"
 "http://www.w3.org/TR/2001/REC-SVG-20010904/DTD/svg10.dtd">
<svg version="1.0" xmlns="http://www.w3.org/2000/svg"
 width="628.000000pt" height="628.000000pt" viewBox="0 0 628.000000 628.000000"
 preserveAspectRatio="xMidYMid meet">

<g transform="translate(0.000000,628.000000) scale(0.100000,-0.100000)"
fill="#000000" stroke="none">
<path d="M1030 3619 c-129 -61 -240 -115 -247 -121 -19 -15 -16 -56 5 -74 10
-8 125 -65 255 -125 l237 -111 237 111 c130 60 245 117 255 125 25 22 23 62
-4 80 -38 24 -476 226 -490 226 -7 -1 -119 -50 -248 -111z"/>
<path d="M3092 3603 c560 -2 1476 -2 2035 0 560 1 102 2 -1017 2 -1119 0
-1577 -1 -1018 -2z"/>
<path d="M2250 3414 c-62 -21 -89 -40 -113 -77 -48 -74 -30 -126 78 -224 40
-36 82 -83 94 -104 22 -38 22 -38 2 -58 -13 -13 -40 -22 -81 -27 -51 -6 -58
-9 -48 -21 9 -11 9 -16 -1 -23 -9 -5 -10 -9 -2 -14 6 -4 8 -12 5 -18 -11 -17
118 -1 168 21 56 24 78 50 79 92 2 56 -17 86 -111 184 -72 74 -90 99 -90 122
0 38 48 83 88 83 16 0 29 6 30 13 0 6 2 21 4 32 3 17 -3 20 -42 22 -25 1 -52
0 -60 -3z"/>
<path d="M3965 3415 c-5 -2 -22 -6 -37 -9 -37 -8 -88 -54 -105 -93 -25 -61 -5
-102 102 -207 136 -134 137 -168 9 -181 -55 -6 -63 -10 -52 -22 8 -10 9 -16 1
-21 -8 -5 -7 -13 2 -26 12 -16 22 -17 70 -11 94 11 150 38 173 82 30 55 0 115
-113 228 -57 57 -85 92 -85 108 0 29 26 67 46 67 8 0 12 5 9 10 -4 6 10 10 35
10 24 0 39 4 35 10 -3 5 -1 18 4 29 8 15 7 20 -5 25 -16 6 -72 7 -89 1z"/>
<path d="M785 3280 c-15 -16 -17 -26 -9 -48 8 -23 45 -43 249 -140 198 -93
245 -112 270 -107 17 4 131 55 255 113 191 91 226 111 234 134 8 22 6 32 -9
48 -10 11 -26 20 -35 20 -17 0 -98 -36 -315 -140 -68 -33 -123 -53 -145 -53
-23 0 -81 22 -165 62 -297 144 -300 145 -330 111z"/>
<path d="M3538 3292 l-38 -3 -1 -172 c-1 -169 0 -229 6 -235 1 -1 59 1 128 4
l126 7 -1 31 c0 64 -3 66 -84 66 l-74 0 0 130 c0 74 -4 130 -9 130 -5 0 -11
10 -13 23 -3 19 -8 22 -40 19z"/>
<path d="M4185 3286 c-25 -9 -30 -17 -33 -48 l-3 -38 56 0 55 0 0 -158 0 -159
38 3 c20 1 40 2 45 3 4 1 7 71 7 155 l0 155 48 3 c45 3 47 5 48 33 3 66 4 66
-119 64 -62 -2 -125 -7 -142 -13z"/>
<path d="M4990 3278 c-77 -40 -109 -133 -86 -246 13 -65 39 -103 88 -128 40
-21 131 -18 189 7 49 21 64 39 33 39 -11 0 -15 6 -12 18 8 30 -25 45 -59 27
-36 -19 -103 -19 -129 -1 -16 12 -19 27 -19 89 0 65 3 79 23 100 26 27 104 42
135 25 14 -7 22 -4 37 14 11 13 19 26 20 30 0 16 -66 40 -119 45 -45 4 -65 0
-101 -19z"/>
<path d="M2517 3281 c-1 -3 -1 -90 1 -193 l4 -188 49 0 49 0 0 78 1 77 25 -50
c14 -27 34 -64 45 -81 l19 -32 43 15 c23 8 44 16 46 18 2 2 -17 35 -43 73 -25
38 -48 76 -52 85 -3 9 -11 14 -18 11 -6 -4 13 18 42 48 30 31 59 66 66 79 11
22 9 26 -18 47 -16 12 -33 22 -37 22 -4 0 -32 -34 -62 -75 -30 -41 -57 -71
-61 -68 -3 4 -6 28 -6 54 0 32 -5 49 -15 53 -8 3 -15 11 -15 18 0 13 -58 21
-63 9z"/>
<path d="M2917 3138 c-4 -83 -7 -174 -7 -202 l0 -51 46 1 c25 1 47 3 48 5 2 2
8 83 14 179 9 150 9 176 -4 183 -8 4 -14 15 -14 22 0 11 -12 15 -38 15 l-39 0
-6 -152z"/>
<path d="M3148 3088 c-3 -112 -4 -204 -3 -206 1 -1 59 1 128 4 l125 7 4 31 c7
64 4 66 -84 66 l-81 0 6 148 c4 92 3 140 -3 127 -9 -19 -9 -19 -16 3 -5 17
-14 22 -39 22 l-32 0 -5 -202z"/>
<path d="M5310 3095 l0 -193 28 -3 c67 -9 71 -5 74 79 l3 77 43 -82 c41 -81
50 -91 66 -75 4 4 23 12 43 17 l35 10 -30 41 c-17 22 -37 55 -46 72 -8 16 -23
37 -32 46 -15 15 -12 21 37 69 29 29 54 58 55 65 1 8 5 16 8 19 3 3 -8 16 -25
30 -35 30 -39 28 -107 -64 l-47 -65 -3 49 c-2 28 -9 51 -18 56 -8 4 -14 16
-14 25 0 12 -10 17 -35 19 l-35 2 0 -194z"/>
<path d="M4541 3153 c-38 -206 -42 -236 -39 -267 3 -25 8 -30 33 -31 47 -3 55
4 55 45 0 22 4 41 8 44 4 2 35 8 67 11 l60 7 34 -48 c29 -42 34 -46 43 -30 6
10 19 27 30 38 19 19 19 19 -2 47 -11 16 -20 38 -20 49 0 11 -6 22 -13 25 -15
6 -61 128 -73 190 -4 26 -9 35 -15 26 -6 -11 -9 -11 -14 1 -4 11 -24 16 -68
18 l-62 2 -24 -127z m121 -25 c9 -29 19 -61 23 -70 5 -13 -1 -18 -30 -24 -20
-3 -38 -5 -40 -2 -6 6 18 148 25 148 3 0 13 -24 22 -52z"/>
<path d="M792 3074 c-22 -15 -29 -48 -14 -71 7 -11 122 -68 287 -143 28 -13
81 -38 119 -56 38 -19 82 -34 96 -34 15 0 83 27 151 59 68 32 173 82 234 110
60 28 113 57 117 64 27 42 -17 96 -63 78 -29 -11 -115 -50 -264 -121 -197 -93
-154 -94 -361 6 -149 72 -266 124 -277 124 -1 0 -13 -7 -25 -16z"/>
<path d="M786 2854 c-19 -19 -20 -44 -3 -67 6 -9 53 -35 102 -58 50 -23 124
-57 165 -76 170 -80 222 -103 231 -103 25 0 492 226 501 243 15 29 1 66 -28
73 -20 5 -75 -17 -242 -95 -119 -56 -224 -101 -232 -101 -9 0 -111 45 -228
100 -116 55 -220 100 -231 100 -11 0 -27 -7 -35 -16z"/>
</g>
</svg>
